<?xml version="1.0" standalone="no"?>
<!DOCTYPE svg PUBLIC "-//W3C//DTD SVG 20010904//EN"
 "http://www.w3.org/TR/2001/REC-SVG-20010904/DTD/svg10.dtd">
<svg version="1.0" xmlns="http://www.w3.org/2000/svg"
 width="270.000000pt" height="279.000000pt" viewBox="0 0 270.000000 279.000000"
 preserveAspectRatio="xMidYMid meet">

<g transform="translate(0.000000,279.000000) scale(0.100000,-0.100000)"
fill="#000000" stroke="none">
<path d="M1327 2555 c-21 -7 -55 -24 -75 -39 -65 -44 -106 -56 -197 -56 -130
0 -154 -15 -213 -132 -27 -55 -73 -98 -141 -133 -99 -50 -129 -102 -119 -207
7 -69 -6 -120 -47 -183 -68 -107 -69 -162 -1 -268 44 -69 48 -84 50 -196 1
-118 14 -140 115 -195 85 -47 108 -70 159 -161 51 -91 76 -105 197 -105 96 0
133 -12 209 -63 85 -58 132 -56 249 15 69 41 72 42 183 47 135 7 149 15 203
114 46 84 68 105 156 155 101 57 110 73 111 190 1 111 4 127 49 202 51 86 60
122 42 175 -9 24 -29 64 -45 87 -42 63 -52 100 -52 204 0 90 -1 94 -32 129
-17 20 -56 49 -87 65 -66 33 -108 76 -146 147 -15 28 -41 64 -57 80 -27 26
-35 28 -141 33 -110 5 -114 6 -197 51 -103 56 -124 61 -173 44z m128 -97 c92
-55 140 -68 240 -65 97 2 107 -3 151 -91 36 -72 97 -132 167 -165 77 -36 87
-54 87 -157 0 -104 8 -134 60 -220 22 -36 40 -77 40 -90 0 -13 -18 -54 -40
-90 -52 -86 -60 -116 -60 -220 0 -103 -10 -121 -87 -157 -70 -33 -131 -93
-167 -165 -44 -87 -54 -93 -150 -91 -102 3 -140 -7 -237 -64 -88 -51 -94 -51
-173 3 -69 48 -142 67 -224 60 -87 -8 -108 3 -151 83 -42 80 -94 132 -170 170
-84 43 -91 56 -91 171 0 101 -16 150 -74 237 -33 48 -33 78 0 126 59 88 74
135 74 243 0 96 1 101 28 126 15 14 48 35 73 46 62 26 119 85 160 163 43 80
64 91 151 83 82 -7 155 12 224 59 84 58 83 58 169 5z"/>
<path d="M1280 2066 c-119 -32 -218 -113 -273 -225 -30 -61 -32 -72 -32 -171
0 -98 2 -110 32 -171 101 -205 331 -292 530 -199 268 124 324 463 111 666 -57
55 -102 80 -173 99 -70 18 -133 18 -195 1z m245 -91 c30 -14 75 -49 102 -79
151 -165 98 -433 -105 -533 -50 -24 -68 -28 -147 -28 -77 1 -98 5 -146 28 -63
30 -125 92 -161 159 -20 37 -23 57 -23 148 0 91 3 111 23 148 49 91 132 159
226 183 59 15 174 3 231 -26z"/>
<path d="M627 893 c-49 -113 -147 -376 -147 -394 0 -28 26 -75 52 -93 30 -21
65 -20 189 5 57 12 105 17 106 13 2 -5 29 -58 61 -119 53 -101 60 -111 96
-123 44 -14 92 -4 119 26 14 16 81 171 149 345 24 62 28 80 18 92 -32 39 -46
20 -131 -187 -46 -110 -92 -206 -101 -212 -25 -15 -47 10 -103 119 -75 143
-70 138 -118 132 -23 -3 -86 -13 -139 -22 -79 -15 -100 -16 -113 -5 -8 7 -15
19 -15 26 0 8 34 99 76 204 78 197 84 230 40 230 -17 0 -27 -10 -39 -37z"/>
<path d="M2055 911 c-3 -11 11 -60 34 -117 124 -310 128 -326 80 -332 -14 -2
-71 6 -126 17 -163 34 -148 41 -221 -103 -64 -127 -89 -154 -117 -125 -7 8
-36 70 -64 139 -104 251 -113 270 -131 270 -10 0 -23 -7 -30 -15 -10 -12 -6
-31 23 -102 111 -274 136 -329 159 -346 29 -22 100 -25 129 -5 12 7 46 63 78
123 64 126 46 118 207 89 117 -21 141 -16 174 38 27 45 25 64 -15 168 -19 50
-51 132 -71 183 -19 50 -42 102 -50 115 -18 27 -50 29 -59 3z"/>
</g>
</svg>
