<svg xmlns="http://www.w3.org/2000/svg" version="1.0" width="343.000000pt" height="270.000000pt" viewBox="0 0 343.000000 270.000000" preserveAspectRatio="xMidYMid meet">

<g transform="translate(0.000000,270.000000) scale(0.100000,-0.100000)" fill="#ffffff" stroke="none">
<path d="M1165 2543 c-123 -19 -244 -72 -327 -143 -61 -53 -134 -164 -166 -253 -23 -63 -26 -88 -26 -197 0 -109 3 -134 26 -197 32 -89 104 -199 166 -253 26 -23 84 -59 129 -81 233 -114 510 -71 688 106 115 114 175 261 175 424 0 322 -238 575 -560 595 -41 2 -88 2 -105 -1z m241 -93 c83 -29 131 -60 199 -129 108 -110 155 -221 155 -370 0 -146 -51 -272 -151 -372 -106 -107 -221 -153 -379 -152 -155 1 -264 48 -377 164 -225 229 -180 612 93 800 126 86 311 110 460 59z" fill="#ffffff"/>
<path d="M2837 1577 l-287 -292 -144 144 c-147 147 -177 165 -184 112 -5 -34 290 -331 328 -331 20 0 91 66 328 303 252 253 303 308 300 328 -2 18 -10 24 -28 25 -20 1 -80 -54 -313 -289z" fill="#ffffff"/>
<path d="M829 1101 c-353 -75 -603 -350 -635 -699 -9 -92 1 -135 38 -178 61 -69 -8 -65 1004 -64 995 0 940 -3 996 57 51 54 59 120 34 264 -48 267 -249 498 -516 591 -116 40 -200 48 -525 47 -259 0 -324 -3 -396 -18z m836 -74 c198 -56 380 -201 467 -371 43 -85 57 -128 73 -231 14 -88 14 -91 -8 -135 -17 -36 -30 -48 -61 -58 -30 -10 -228 -12 -920 -10 -829 3 -883 4 -907 21 -41 28 -53 67 -46 155 24 304 262 565 582 637 94 21 738 15 820 -8z" fill="#ffffff"/>
</g>
</svg>