<?xml version="1.0" standalone="no"?>
<!DOCTYPE svg PUBLIC "-//W3C//DTD SVG 20010904//EN"
 "http://www.w3.org/TR/2001/REC-SVG-20010904/DTD/svg10.dtd">
<svg version="1.0" xmlns="http://www.w3.org/2000/svg"
 width="310.000000pt" height="267.000000pt" viewBox="0 0 310.000000 267.000000"
 preserveAspectRatio="xMidYMid meet">

<g transform="translate(0.000000,267.000000) scale(0.100000,-0.100000)"
fill="#000000" stroke="none">
<path d="M1430 2451 c-36 -15 -426 -189 -685 -306 -27 -12 -118 -52 -202 -90
-162 -71 -183 -89 -183 -147 0 -48 21 -71 92 -103 50 -22 347 -155 683 -305
22 -10 103 -46 180 -81 196 -89 204 -88 440 18 431 194 599 269 735 329 80 35
153 74 163 85 23 28 23 101 0 122 -10 8 -196 95 -413 192 -217 97 -456 204
-530 238 -154 70 -207 79 -280 48z m368 -165 c483 -215 795 -355 800 -360 19
-20 -14 -36 -563 -284 -66 -29 -190 -85 -275 -124 -85 -38 -169 -76 -187 -84
-60 -27 -75 -22 -433 142 -30 13 -201 91 -380 172 -199 91 -326 154 -328 164
-2 11 53 40 205 108 114 51 280 125 368 165 88 39 184 83 214 96 30 13 100 45
155 71 56 25 116 47 134 47 21 1 121 -38 290 -113z"/>
<path d="M495 1435 c-111 -50 -135 -71 -135 -121 0 -60 21 -77 183 -149 84
-38 175 -78 202 -90 344 -155 650 -291 690 -307 73 -29 122 -21 266 45 68 31
304 137 523 235 220 99 410 188 423 200 29 25 32 89 6 121 -20 22 -212 111
-242 111 -21 0 -33 -22 -25 -44 5 -14 26 -25 152 -81 34 -15 62 -34 62 -42 0
-14 -42 -35 -255 -131 -49 -22 -146 -66 -215 -97 -69 -31 -138 -63 -155 -70
-16 -7 -57 -26 -90 -40 -33 -15 -124 -56 -202 -91 -79 -35 -156 -64 -172 -64
-16 0 -103 34 -193 75 -89 41 -325 148 -523 238 -225 102 -361 169 -363 179
-2 10 14 23 50 38 154 66 175 81 162 115 -10 24 -42 17 -149 -30z"/>
<path d="M495 834 c-111 -50 -134 -72 -135 -124 0 -50 20 -73 92 -105 50 -22
347 -155 683 -305 22 -10 103 -46 180 -81 196 -89 204 -88 440 18 431 194 599
269 735 329 80 35 153 74 163 85 26 32 23 95 -7 122 -27 25 -207 107 -235 107
-22 0 -34 -26 -23 -47 5 -8 55 -35 111 -60 72 -33 101 -51 99 -61 -3 -14 -152
-85 -554 -266 -60 -27 -183 -82 -274 -123 -91 -41 -179 -81 -197 -89 -60 -27
-75 -22 -433 142 -30 13 -201 91 -380 172 -200 91 -326 154 -328 164 -2 10 27
28 99 61 104 46 124 62 113 91 -9 25 -40 18 -149 -30z"/>
</g>
</svg>
